<?xml version="1.0" encoding="utf-8"?>
<!-- Generator: Adobe Illustrator 21.0.0, SVG Export Plug-In . SVG Version: 6.00 Build 0)  -->
<svg version="1.1" id="Layer_1" xmlns="http://www.w3.org/2000/svg" xmlns:xlink="http://www.w3.org/1999/xlink" x="0px" y="0px"
	 viewBox="0 0 30 30" style="enable-background:new 0 0 30 30;" xml:space="preserve">
<style type="text/css">
	.st0{fill:#111111;}
	.st1{fill:none;}
</style>
<g>
	<path class="st0" d="M13.5,14.3v2.9v0.4c0.1,0.5,0.9,0.8,1.8,0.7c0.7-0.1,1-0.4,1-1c0-2,0-3.9,0-5.9c0-0.5,0.2-0.5,0.5-0.4
		c1.3,0.3,2.6,0.8,3.7,1.4c2.3,1.1,4.7,2.1,7,3.2c0.4,0.2,0.7,0.4,1,0.7c0.5,0.4,0.5,1.1,0.1,1.6L28.5,18c-0.5,0.5-1.2,0.9-1.8,1.1
		c-2.6,1.2-5.2,2.4-7.7,3.5c-2.5,1.2-5.4,1.2-7.9,0c-2.5-1.1-5.1-2.3-7.6-3.5C3,18.9,2.4,18.6,2,18.3c-1-0.7-1-1.6,0-2.3
		c0.8-0.5,1.6-0.9,2.5-1.3l6.6-3c0.7-0.3,1.4-0.6,2.2-0.7c0.3-0.1,0.4,0,0.4,0.3C13.5,12.3,13.5,13.3,13.5,14.3z M6.4,15.9
		c-0.5,0-1,0.1-1.5,0.4c-0.4,0.2-0.6,0.7-0.4,1.1c0.1,0.2,0.2,0.4,0.4,0.4c1,0.6,2.2,0.5,3.1,0c0.4-0.2,0.5-0.7,0.3-1.1
		c-0.1-0.1-0.2-0.2-0.3-0.3C7.6,16,7,15.9,6.4,15.9z"/>
	<path class="st0" d="M15.1,27.9c-1.6-0.1-3.2-0.5-4.7-1.2c-2.5-1.2-5.1-2.3-7.7-3.5C2.5,23.1,2.4,23,2.2,23c-1-0.5-1.5-1.6-1.1-2.6
		c0.1-0.3,0.3-0.4,0.6-0.3c1,0.5,2,0.9,3,1.4c2.3,1,4.6,2.2,7,3.1s5,0.8,7.3-0.3c2.6-1.1,5.1-2.3,7.7-3.5l1.6-0.7
		c0.4-0.2,0.6,0,0.6,0.4c0.1,1.4-0.1,2-1.4,2.6c-2,1-4,1.9-6,2.8c-1.2,0.6-2.5,1.2-3.8,1.6C16.9,27.8,16,27.9,15.1,27.9z"/>
	<path class="st0" d="M18.9,5.9c0,2.1-1.7,3.9-3.8,3.9S11.2,8.1,11.2,6s1.7-3.9,3.8-3.9S18.9,3.8,18.9,5.9z"/>
</g>
<path class="st1" d="M0,0h30v30H0V0z"/>
</svg>
