<?xml version="1.0" encoding="utf-8"?>
<!-- Generator: Adobe Illustrator 21.0.0, SVG Export Plug-In . SVG Version: 6.00 Build 0)  -->
<svg version="1.1" id="Layer_1" xmlns="http://www.w3.org/2000/svg" xmlns:xlink="http://www.w3.org/1999/xlink" x="0px" y="0px"
	 viewBox="0 0 30 30" style="enable-background:new 0 0 30 30;" xml:space="preserve">
<style type="text/css">
	.st0{fill:#111111;}
	.st1{fill:none;}
</style>
<g>
	<path class="st0" d="M27.4,8.5c-1.7-3.2-4.5-5.7-8-6.8c-1-0.3-2-0.5-3.1-0.6L15.4,1h-0.2h-0.5c-0.1,0-0.2,0-0.3,0
		c-3.7,0.1-7.2,1.7-9.7,4.5C3,7.3,1.8,9.4,1.3,11.8C1.1,12.9,1,13.9,1,15c-0.1,3.9,1.6,7.7,4.5,10.3c1.8,1.7,4,2.9,6.5,3.4
		c0.8,0.2,1.5,0.2,2.3,0.3h0.4h0.5h0.3c5.7-0.2,10.7-3.8,12.6-9.2c0.4-1.1,0.7-2.2,0.8-3.3C29.3,13.8,28.7,11,27.4,8.5z M15.2,26.5
		C8.9,26.7,3.6,21.6,3.5,15.2S8.4,3.6,14.8,3.5c6.3-0.1,11.6,4.9,11.8,11.3C26.7,21.1,21.6,26.4,15.2,26.5z"/>
	<path class="st0" d="M4.6,18.6l0.9-0.3l1.7-0.6c0.1,0,0.2,0,0.3,0.1s0.2,0.5,0.3,0.8s0,0.2-0.1,0.3l-2.3,1.2c-0.1,0-0.2,0.1-0.2,0
		C5,19.6,4.8,19.1,4.6,18.6z"/>
	<path class="st0" d="M5.5,15h1.3C6.9,15,7,15,7,15.2s0,0.6,0.1,0.9c0,0.1,0,0.2-0.1,0.2l-2.4,0.4c-0.3,0-0.3,0-0.4-0.3
		S4,15.6,4,15.2C4,15,4.1,15,4.2,15L5.5,15z"/>
	<path class="st0" d="M24.5,15h1.3c0.1,0,0.2,0,0.2,0.2c0,0.4,0,0.8-0.1,1.3c0,0.3-0.1,0.3-0.3,0.2l-1.8-0.3l-0.6-0.1
		C23,16.3,23,16.2,23,16c0-0.3,0.1-0.6,0.1-0.8s0.1-0.2,0.3-0.2L24.5,15z"/>
	<path class="st0" d="M6.3,8.3l1.5,1.2L8.5,10c0.1,0.1,0.2,0.2,0.1,0.3c-0.2,0.3-0.4,0.6-0.6,0.9L5.3,9.7C5.6,9.2,5.9,8.8,6.3,8.3z"
		/>
	<path class="st0" d="M22.4,7l-1.9,2c-0.1,0.1-0.2,0.1-0.3,0l-0.7-0.5c-0.1,0-0.1-0.1-0.1-0.2c0.5-0.7,1-1.5,1.5-2.2
		C21,5.9,21.1,5.9,21.2,6L22.4,7z"/>
	<path class="st0" d="M8.9,5.8l1,1.5l0.5,0.8c0.1,0.2,0.1,0.3-0.1,0.4S10,8.8,9.8,9S9.5,9.1,9.4,9L8,7.4L7.7,7.1
		C7.6,7,7.5,6.9,7.7,6.9C8,6.5,8.5,6.2,8.9,5.8z"/>
	<path class="st0" d="M17,7.2c0.1-0.3,0.2-0.7,0.2-1c0.1-0.6,0.3-1.1,0.4-1.6c0-0.2,0.1-0.2,0.3-0.2l1.2,0.4
		c0.2,0.1,0.2,0.1,0.1,0.3c-0.4,0.8-0.7,1.5-1,2.3c-0.1,0.2-0.1,0.2-0.4,0.2s-0.5-0.2-0.7-0.3C17.1,7.3,17.1,7.2,17,7.2z"/>
	<path class="st0" d="M10.5,25h-0.2l-1.1-0.6C9,24.2,9,24.2,9.2,24c0.4-0.7,0.9-1.4,1.4-2.1c0.1-0.1,0.2-0.2,0.3-0.1
		s0.5,0.3,0.7,0.4s0.2,0.1,0.1,0.3c-0.4,0.8-0.7,1.6-1,2.4C10.6,24.9,10.6,25,10.5,25z"/>
	<path class="st0" d="M13,7.2l-0.1,0.1c-0.3,0.1-0.6,0.2-0.9,0.3s-0.2-0.1-0.2-0.2c-0.3-0.7-0.6-1.3-0.9-2L10.7,5
		c0-0.1,0-0.2,0.1-0.2l1.4-0.5c0.1,0,0.1,0,0.1,0.1c0.2,0.6,0.3,1.3,0.5,1.9C12.8,6.6,12.9,6.9,13,7.2z"/>
	<path class="st0" d="M15.7,23.3c0-0.3,0-0.3,0.3-0.4l0.7-0.1c0.1,0,0.2,0,0.3,0.2c0.2,0.8,0.4,1.7,0.6,2.5c0,0.1,0,0.2-0.2,0.2
		L16.1,26c-0.2,0-0.2-0.1-0.2-0.2s-0.1-0.5-0.1-0.7C15.8,24.4,15.8,23.9,15.7,23.3z"/>
	<path class="st0" d="M22.6,17.6l0.2,0.1l2.3,0.8c0.3,0.1,0.3,0.1,0.2,0.4L24.8,20c-0.1,0.1-0.1,0.1-0.3,0.1l-2.3-1.2
		c-0.1-0.1-0.2-0.1-0.1-0.3s0.2-0.5,0.4-0.8C22.5,17.7,22.6,17.7,22.6,17.6z"/>
	<path class="st0" d="M22,11.1c-0.1,0-0.1-0.1-0.2-0.1c-0.2-0.3-0.3-0.5-0.5-0.8c-0.1-0.1,0-0.1,0.1-0.2l1.8-1.4
		c0.4-0.3,0.4-0.3,0.7,0.1l0.5,0.8c0.1,0.2,0.1,0.2-0.1,0.4L22,11.1L22,11.1z"/>
	<path class="st0" d="M23.1,13.6c-0.2,0-0.3,0-0.3-0.2s-0.1-0.5-0.2-0.8c0-0.1,0-0.2,0.1-0.2h0.1l2.5-0.8c0.1,0,0.2,0,0.2,0.1
		c0.1,0.4,0.2,0.9,0.4,1.3c0,0.2-0.1,0.2-0.2,0.2l-1.5,0.3L23.1,13.6z"/>
	<path class="st0" d="M21,24.2L19.6,25c-0.1,0-0.2,0-0.2-0.1c-0.4-0.8-0.7-1.6-1.1-2.5c0-0.1,0-0.2,0.1-0.2l0.8-0.4
		c0.1-0.1,0.1-0.1,0.2,0L21,24.2z"/>
	<path class="st0" d="M20.4,20.9c0.3-0.3,0.5-0.6,0.8-0.9l0.4,0.3l1.8,1.4c0.2,0.1,0.2,0.2,0,0.4L22.6,23c-0.1,0.1-0.2,0.2-0.3,0
		L20.4,20.9z"/>
	<path class="st0" d="M7.5,23.1L6.4,22c-0.1-0.1-0.1-0.2,0-0.2l2.1-1.6C8.6,20,8.7,20,8.8,20l0.6,0.6c0.1,0.1,0.1,0.2,0,0.3
		L7.5,23.1z"/>
	<path class="st0" d="M6.8,13.6l-1.5-0.3l-1-0.2c-0.1,0-0.2-0.1-0.2-0.2c0.1-0.4,0.2-0.9,0.3-1.3c0-0.2,0.1-0.2,0.3-0.2l2.4,0.9
		c0.1,0,0.2,0.1,0.1,0.2C7.1,12.8,7.1,13,7,13.3S7.1,13.6,6.8,13.6z"/>
	<path class="st0" d="M15,4.1h0.6c0.1,0,0.2,0,0.2,0.2c0,0.5-0.1,1.1-0.1,1.6c0,0.3-0.1,0.6-0.1,1c0,0.1-0.1,0.2-0.2,0.2h-0.9
		c-0.1,0-0.2,0-0.2-0.1c-0.1-0.8-0.1-1.7-0.2-2.5c0-0.3,0-0.3,0.3-0.3L15,4.1z"/>
	<path class="st0" d="M14.2,23.5c-0.1,0.7-0.1,1.5-0.2,2.2c0,0.1-0.1,0.2-0.2,0.1c-0.5-0.1-0.9-0.1-1.4-0.2c-0.2,0-0.1-0.2-0.1-0.3
		c0.1-0.5,0.3-1.1,0.4-1.6l0.2-0.8c0-0.1,0.1-0.2,0.2-0.2l0.8,0.1c0.2,0,0.3,0.1,0.2,0.3C14.2,23.3,14.2,23.4,14.2,23.5z"/>
	<path class="st0" d="M7,19.7c0.3,0,0.5,0.2,0.5,0.5S7.3,20.7,7,20.7s-0.5-0.2-0.5-0.5S6.7,19.8,7,19.7z"/>
	<path class="st0" d="M14.8,7.6c-4.1,0.1-7.3,3.5-7.2,7.6s3.5,7.3,7.6,7.2c4-0.1,7.2-3.4,7.2-7.4c0-4.1-3.3-7.4-7.4-7.4
		C14.9,7.6,14.9,7.6,14.8,7.6z M15,20c-2.7,0-5-2.3-5-5c0.1-2.7,2.3-4.9,5-5c2.8,0,5,2.2,5,5S17.8,20,15,20z"/>
	<path class="st0" d="M18.5,15.8c-0.1-0.3-0.5-0.5-0.8-0.4c0,0,0,0-0.1,0c-0.2,0.1-0.4,0.1-0.6,0l-0.2-0.1c-0.3-0.1-0.4-0.2-0.3-0.5
		c0-0.3-0.2-0.7-0.4-0.9c-0.1-0.1-0.1-0.1-0.2-0.2s-0.1-0.2-0.1-0.3c0-0.4,0.3-0.7,0.6-0.9c0.3-0.1,0.4-0.4,0.3-0.7
		s-0.3-0.5-0.6-0.5c-0.5,0-0.8,0.3-0.6,0.8c0.1,0.3,0.1,0.7,0,1c0,0.2-0.3,0.4-0.5,0.4c-0.4,0-0.8,0.2-1.1,0.5
		c-0.1,0.1-0.2,0.2-0.4,0.1s-0.3-0.2-0.5-0.3c-0.1-0.1-0.2-0.2-0.3-0.3s-0.2-0.2-0.3-0.3c-0.3-0.2-0.6-0.1-0.9,0.1
		c-0.2,0.2-0.2,0.6,0,0.8s0.5,0.3,0.8,0.2c0.2-0.1,0.4-0.1,0.6,0l0.2,0.1c0.4,0.1,0.4,0.1,0.4,0.6v0.1c0.1,0.4,0.2,0.7,0.5,0.9
		c0.2,0.1,0.2,0.4,0.1,0.6c-0.1,0.3-0.3,0.5-0.5,0.6c-0.3,0.2-0.4,0.5-0.3,0.9c0.2,0.3,0.5,0.4,0.8,0.3s0.5-0.5,0.3-0.9
		c-0.1-0.1-0.1-0.3-0.1-0.4c0-0.2,0.1-0.3,0.2-0.5c0-0.2,0.2-0.3,0.4-0.3c0.4,0.1,0.8-0.1,1-0.4c0.2-0.2,0.5-0.3,0.7-0.2
		c0.3,0.1,0.5,0.3,0.6,0.5c0.2,0.3,0.5,0.4,0.8,0.3C18.5,16.4,18.6,16.1,18.5,15.8z M15.1,14.5H15c-0.2,0-0.4,0.2-0.4,0.5
		c0,0.1-0.1,0.2-0.3,0.2c-0.1,0-0.2-0.1-0.2-0.3c0.1-0.4,0.4-0.7,0.8-0.8h0.3C15.3,14.2,15.2,14.4,15.1,14.5z"/>
</g>
<path class="st1" d="M0,0h30v30H0V0z"/>
</svg>
