<?xml version="1.0" encoding="utf-8"?>
<!-- Generator: Adobe Illustrator 21.0.0, SVG Export Plug-In . SVG Version: 6.00 Build 0)  -->
<svg version="1.1" id="Layer_1" xmlns="http://www.w3.org/2000/svg" xmlns:xlink="http://www.w3.org/1999/xlink" x="0px" y="0px"
	 viewBox="0 0 18 18" style="enable-background:new 0 0 18 18;" xml:space="preserve">
<style type="text/css">
	.st0{fill:#111111;}
	.st1{fill:none;}
</style>
<g>
	<path class="st0" d="M15.4,13.4V17c0,0.2,0,0.2-0.2,0.2h-4.6c-0.2,0-0.2,0-0.2-0.2v-4.2c0-0.2,0-0.3-0.2-0.3H7.8
		c-0.2,0-0.2,0-0.2,0.3V17c0,0.2,0,0.2-0.2,0.2H2.8c-0.2,0-0.2,0-0.2-0.2V9.8c0-0.1,0-0.1,0-0.2c0-0.2,0.2-0.4,0.4-0.3
		c0.2,0,0.3,0.2,0.3,0.4V10v6.1c0,0.3,0,0.3,0.3,0.3h2.9c0.2,0,0.3,0,0.3-0.3V12c0-0.2,0-0.2,0.2-0.2h4c0.2,0,0.3,0,0.3,0.3v4
		c0,0.4,0,0.4,0.4,0.4h2.8c0.2,0,0.2,0,0.2-0.3V9.8c0-0.3,0.1-0.4,0.3-0.5s0.4,0,0.5,0.2v0.2v0.6C15.4,11.3,15.4,12.4,15.4,13.4z"/>
	<path class="st0" d="M9,0.7l1,1c2.4,2.3,4.8,4.6,7.1,6.9c0.2,0.2,0.4,0.4,0.6,0.6v0.2c-0.2,0.3-0.4,0.4-0.7,0.1l-2.1-2.1l-5.3-5
		L9.1,2C9,1.9,9,1.9,8.8,2L5,5.8L1.6,9C1.4,9.2,1.2,9.4,0.9,9.6c0,0.1-0.1,0.2-0.2,0.2c-0.2,0-0.4-0.1-0.5-0.4c0-0.1,0-0.1,0-0.2
		s0-0.1,0.1-0.1c0.5-0.5,1-1,1.5-1.4l6.6-6.4L9,0.7z"/>
	<path class="st0" d="M13.7,2.2h1.5c0.2,0,0.2,0,0.2,0.2v2.9c0,0.2-0.1,0.4-0.3,0.4c-0.2,0.1-0.3,0-0.4-0.1s-0.1-0.2-0.1-0.3
		c0-0.7,0-1.3,0-2c0-0.2,0-0.2-0.2-0.2h-2.1c-0.1,0-0.3,0-0.4-0.1c-0.1,0-0.2-0.2-0.2-0.3c0-0.2,0.1-0.3,0.2-0.4
		c0.1,0,0.2-0.1,0.3-0.1L13.7,2.2z"/>
</g>
<path class="st1" d="M0,0h18v18H0V0z"/>
</svg>
