<?xml version="1.0" encoding="utf-8"?>
<!-- Generator: Adobe Illustrator 21.0.0, SVG Export Plug-In . SVG Version: 6.00 Build 0)  -->
<svg version="1.1" id="Layer_1" xmlns="http://www.w3.org/2000/svg" xmlns:xlink="http://www.w3.org/1999/xlink" x="0px" y="0px"
	 viewBox="0 0 18 18" style="enable-background:new 0 0 18 18;" xml:space="preserve">
<style type="text/css">
	.st0{fill:#111111;}
	.st1{fill:none;}
</style>
<g>
	<path class="st0" d="M11.9,7.9c-0.1,0.2-0.3,0.5-0.4,0.7L11,7.9C11.3,8,11.6,8,11.9,7.9z"/>
	<path class="st0" d="M17.8,2.6c0-0.3-0.3-0.4-0.5-0.5l-3.1-0.8l-3.9-1c-0.3-0.1-0.6,0-0.7,0.3v0.1v0.1C9.2,2.5,8.8,4.1,8.3,5.7
		c0,0.1,0,0.1,0.2,0.2C9,6.2,9.5,6.6,10,7l0.1,0.1V6.9c0-0.6,0.3-1.2,0.9-1.5c0.6-0.4,1.3-0.8,2-1.1c0.1-0.1,0.2,0,0.2,0.1l0.3,0.5
		l0.9,1.4c0.3,0.5,0.3,1.2,0,1.7c-0.1,0.3-0.4,0.5-0.7,0.5c-0.4,0.1-0.8-0.1-1.1-0.4L12.5,8c0,0.4,0.1,0.9,0.1,1.3l-0.8-0.2v0.1
		c0.5,1,0.7,2.1,0.7,3.3c0,0.1,0,0.1,0.1,0.2l1.9,0.5c0.3,0.1,0.7-0.1,0.8-0.4v-0.1L17.8,3C17.8,2.9,17.8,2.7,17.8,2.6z M10.6,3
		c-0.1,0.1-0.2,0.1-0.3,0.1h-0.1c-0.1,0.2-0.1,0.2-0.3,0.1V3.1c0-0.1-0.1-0.2-0.1-0.4c0,0,0-0.1,0.1-0.1c0.1-0.1,0.3-0.2,0.4-0.3
		h0.1c0,0,0.1,0.3,0.2,0.4S10.7,2.9,10.6,3z M10.6,2c0-0.1-0.1-0.1-0.1-0.1c-0.1,0-0.1,0-0.2,0S10.2,2,10,1.9l0.2-0.2l0.4-0.4
		c0.1-0.1,0.1-0.1,0.2,0c0.1,0.3,0.1,0.6,0.1,0.9C10.6,2.2,10.6,2.2,10.6,2z M14.8,11.6l-0.5,0.6c0,0-0.1,0-0.1,0.1v-0.1
		c-0.1-0.3-0.1-0.6-0.1-0.8s0.2,0,0.2,0.2s0.1,0.1,0.1,0.1h0.2C14.7,11.5,14.7,11.5,14.8,11.6z M14.8,11l-0.2,0.1
		c-0.1,0.1-0.1,0-0.2,0c-0.1-0.1-0.1-0.2-0.2-0.3s0-0.2,0.1-0.3h0.1c0.1,0,0.2,0,0.2-0.2l0.2,0.1l-0.1,0.1
		C15.1,10.7,15.1,10.8,14.8,11z"/>
	<path class="st0" d="M5.9,6.2c-3.2,0-5.7,2.6-5.7,5.7s2.6,5.7,5.7,5.7c3.2,0,5.7-2.6,5.7-5.7C11.7,8.8,9.1,6.2,5.9,6.2z M9.8,10.2
		c0.1,0.1,0.1,0.2,0,0.3L9.2,12c0,0.1-0.1,0.2-0.3,0.2l-1.6,0.1c-0.1,0-0.2,0-0.3-0.1c-0.4-0.6-0.8-1.1-1.2-1.7c0-0.1,0-0.2,0-0.3
		c0.2-0.5,0.4-1,0.7-1.5c0-0.1,0.1-0.2,0.2-0.1h0.8l0.7-0.1c0.6,0,0.5,0,0.8,0.4S9.5,9.7,9.8,10.2z M6.8,12.6
		c-0.3,0.6-0.5,1.1-0.7,1.7c0,0.1-0.1,0.1-0.2,0.1c-0.7,0.1-1.3,0.1-2,0.2c-0.1,0-0.1,0-0.2-0.1c-0.3-0.5-0.7-1-1-1.6
		c0-0.1,0-0.1,0-0.2C3,12.2,3.2,11.6,3.5,11c0-0.1,0.1-0.1,0.2-0.1l1.8-0.3c0,0,0.1,0.1,0.2,0.1c0.4,0.6,0.8,1.1,1.2,1.7
		C6.9,12.5,6.9,12.5,6.8,12.6z M4.8,7.2C4.9,7.1,4.9,6.9,5,6.8c0-0.1,0.1-0.2,0.2-0.2L6,6.5c0.9,0,1.7,0.2,2.5,0.7
		c0.1,0.1,0.2,0.2,0.3,0.3v0.1c0,0-0.1,0.2-0.1,0.3S8.6,8.1,8.5,8.1H7.7c-0.3,0-0.7,0-1,0c-0.2,0-0.3,0-0.5-0.1
		C5.8,7.8,5.4,7.6,4.9,7.4C4.9,7.4,4.8,7.3,4.8,7.2z M4.6,6.7c0,0.1-0.1,0.2-0.1,0.3c0,0.2-0.2,0.4-0.4,0.5C3.8,7.9,3.4,8.2,3,8.5
		C2.8,8.6,2.5,8.7,2.3,8.8c-0.2,0-0.5,0-0.7,0.1C2.3,7.8,3.4,7,4.6,6.7z M2.2,12.8L1.1,13C1,13,1,13,1,13c-0.1-0.5-0.3-1-0.4-1.4
		v-0.1c0,0,0-0.2,0.1-0.3c0.2-0.6,0.5-1.2,0.7-1.8c0-0.1,0.1-0.2,0.2-0.2l0.9-0.1c0.1,0,0.2,0,0.2,0.1c0.2,0.5,0.3,1,0.5,1.4v0.2
		l-0.8,1.8C2.4,12.7,2.3,12.8,2.2,12.8z M2.6,16.2c0.2-0.1,0.7,0.2,0.8,0.5L2.6,16.2z M6.8,17l-1.6,0.2c-0.3,0-0.5,0-0.8-0.2
		s-0.6-0.5-0.9-0.7c-0.1,0-0.2-0.2-0.1-0.3c0.1-0.3,0.2-0.6,0.3-0.9C3.8,15,3.9,15,4,15l2-0.2c0.1,0,0.2,0.1,0.3,0.1
		c0.4,0.3,0.8,0.6,1.3,0.9c0.1,0.1,0.1,0.1,0,0.2L7,16.9C7,17,6.9,17,6.8,17z M10.1,15.2c-0.6,0.7-1.2,1.2-2,1.6
		C8,16.9,7.8,17,7.6,17c-0.1,0-0.1,0-0.2,0c0-0.1,0-0.1,0.1-0.2l0.3-0.6C8,16,8.1,15.8,8.3,15.7c0.4-0.3,0.8-0.6,1.2-0.9
		c0.2-0.1,0.4-0.2,0.6-0.1c0.1,0,0.3,0,0.4,0.1C10.4,14.9,10.3,15.1,10.1,15.2z M10.8,14.2c-0.1,0.2-0.1,0.2-0.3,0.2H10
		c-0.1,0-0.1-0.1-0.1-0.1c-0.1-0.6-0.2-1.1-0.3-1.7c0-0.1,0-0.2,0-0.3c0.2-0.5,0.4-1,0.6-1.5c0.1-0.2,0.1-0.2,0.3-0.1h0.4
		c0.1,0,0.2,0.1,0.2,0.2c0.2,0.4,0.3,0.9,0.3,1.4C11.3,12.8,11.1,13.5,10.8,14.2z"/>
	<path class="st0" d="M4.2,5.4C3.9,4.7,3.6,4,3.3,3.3c0-0.1-0.1-0.2-0.3-0.2L1.8,3L0.6,2.9C0.6,3,0.6,3,0.7,3l1.1,1.9
		C1.9,5,2,5.1,2.1,5.1l1.5,0.3H4.2L4.2,5.4z M2.4,4.8c0,0-0.1,0.1-0.2,0.1S2,4.9,1.9,4.8c0-0.1,0-0.1,0-0.2h0.2
		C2.2,4.6,2.3,4.7,2.4,4.8L2.4,4.8z M2.7,4.2c0,0-0.1,0.1-0.2,0.1S2.3,4.2,2.2,4.1c0,0,0-0.1,0-0.2s0.1-0.1,0.2-0.1
		c0.1,0,0.1,0.1,0.2,0.2C2.7,4.1,2.7,4.2,2.7,4.2z M3,3.6c0,0-0.1,0.1-0.2,0.1S2.6,3.6,2.5,3.5s-0.1-0.2,0-0.2s0.2-0.1,0.3,0
		S2.9,3.4,3,3.4S3,3.5,3,3.6z"/>
	<path class="st0" d="M5.8,3.3C5.6,2.7,5.5,2.2,5.3,1.6C5.2,1.5,5.2,1.3,5.1,1.1H5L3.6,2.9C3.5,3,3.5,3.1,3.6,3.2l1,2.1
		c0,0,0,0.1,0.1,0.1l0.1-0.2l1-1.7C5.8,3.5,5.8,3.4,5.8,3.3z M4.3,3.3c0,0.1-0.1,0.1-0.2,0.1S4,3.2,4,3.2C4,3.1,4.1,3,4.1,3
		s0.1-0.1,0.2-0.1S4.3,3,4.4,3C4.3,3.1,4.3,3.2,4.3,3.3z M4.8,4.7C4.8,4.8,4.7,4.8,4.8,4.7c-0.1,0.1-0.2,0.1-0.2,0
		c-0.1-0.2,0-0.4,0.2-0.5C4.9,4.4,4.9,4.6,4.8,4.7z M4.9,3.5c-0.1,0-0.1,0-0.2,0c0-0.1,0-0.1,0-0.2S4.8,3.1,4.8,3S4.9,3,5,3
		C5.1,3.2,5,3.4,4.9,3.5z M5,2.3L5,2.3L4.8,2.2c0,0,0-0.2,0.1-0.3L5,1.8c0,0,0.1,0,0.1,0.1C5.2,2,5.1,2.2,5,2.3z M5.5,3.6L5.5,3.6
		c-0.2,0-0.2-0.1-0.2-0.2s0-0.1,0.1-0.2c0,0,0.1-0.1,0.2-0.1s0.1,0.1,0.1,0.2C5.6,3.4,5.6,3.5,5.5,3.6z"/>
	<path class="st0" d="M4.7,0.9L2.6,1C2.5,1,2.4,1,2.3,1.1L0.9,2.5L0.7,2.6h0.1l0.9,0.1L3,2.8c0.1,0,0.3,0,0.4-0.1l1.1-1.3
		c0.1-0.1,0.3-0.3,0.4-0.5L4.7,0.9z M2.5,1.9C2.6,1.7,2.8,1.6,3,1.7C3,1.9,2.7,2,2.5,1.9z"/>
	<path class="st0" d="M10.6,1.8h-0.2l0.1-0.2L10.6,1.8z"/>
	<path class="st0" d="M14.2,12c0-0.1,0-0.1,0-0.2c0,0,0,0,0-0.1h0.1v0.1C14.3,11.8,14.2,11.9,14.2,12z"/>
</g>
<path class="st1" d="M0,0h18v18H0V0z"/>
</svg>
