<?xml version="1.0" encoding="utf-8"?>
<!-- Generator: Adobe Illustrator 21.0.0, SVG Export Plug-In . SVG Version: 6.00 Build 0)  -->
<svg version="1.1" id="Layer_1" xmlns="http://www.w3.org/2000/svg" xmlns:xlink="http://www.w3.org/1999/xlink" x="0px" y="0px"
	 viewBox="0 0 30 30" style="enable-background:new 0 0 30 30;" xml:space="preserve">
<style type="text/css">
	.st0{fill:#111111;}
	.st1{fill:none;}
</style>
<g>
	<path class="st0" d="M28,19.7c0-0.1,0-0.2-0.2-0.2c-0.5,0.1-0.9,0.1-1.4,0.2c-0.2,0-0.2-0.1-0.3-0.2c-0.1-0.4-0.2-0.9-0.3-1.3
		c-0.1-0.3-0.2-0.5-0.4-0.8c-0.1-0.2,0-0.3,0.1-0.4l1.2-0.7c0.1-0.1,0.1-0.1,0.1-0.3c-1.1-2-3-3.4-5.2-4c-0.3-0.1-0.3-0.1-0.3,0.2
		c-0.1,0.4-0.2,0.9-0.3,1.3c0,0.2-0.1,0.2-0.3,0.2c-0.7-0.1-1.4-0.1-2.1,0c-0.2,0.1-0.3,0-0.3-0.2L18.1,12v-0.1l0.5-0.1
		c0.5,0,1-0.1,1.5-0.1c0.2,0,0.2-0.1,0.2-0.3V2.6c0-0.2,0-0.3,0-0.5c-0.2-0.6-0.7-1-1.3-1.1h-0.2H6.2H5.9C5.3,1.2,4.8,1.7,4.7,2.4
		v0.5c0,0.2-0.1,0.3-0.3,0.3c-0.4,0-0.8,0-1.2,0.1C2.5,3.3,2,3.9,2,4.6v0.9V24c0,0.4,0.1,0.9,0.4,1.2s0.7,0.5,1.1,0.5h4.1h5.1
		c0.3,0,0.6,0.1,0.8,0.4c0,0,0,0.1,0.1,0.1l0.1-0.1l1.1-1c0.2-0.2,0.2-0.2,0.3,0c0.4,0.5,0.9,0.9,1.5,1.2c0.5,0.3,0.5,0.3,0.2,0.8
		s-0.3,0.7-0.5,1c-0.1,0.1,0,0.2,0.1,0.3c0.6,0.3,1.2,0.5,1.9,0.6c0.3,0,0.7,0.1,1,0.1h0.2H20h0.5c0.8,0,1.5-0.2,2.2-0.5
		c0.5-0.2,0.5-0.2,0.3-0.7s-0.3-0.8-0.5-1.1c0-0.1-0.1-0.2,0.1-0.2c0.7-0.3,1.3-0.8,1.9-1.4l0.1-0.1l0.4,0.3l0.9,0.8
		c0.1,0.1,0.1,0.1,0.2,0c1-1.2,1.7-2.7,2-4.3C28,21.1,28,20.4,28,19.7z M14,17.4c-0.3,0.6-0.5,1.3-0.6,2c0,0.3-0.1,0.4-0.4,0.3
		s-0.8-0.1-1.2-0.1c-0.1,0-0.2,0-0.2,0.2c-0.1,1.2,0,2.5,0.4,3.7c0.1,0.3,0.2,0.6,0.3,0.9H4.2c-0.3,0-0.6-0.2-0.7-0.5
		c0-0.1,0-0.1,0-0.2V5.4c0-0.3,0.2-0.6,0.5-0.7h0.1h11.4c0.3,0,0.6,0.2,0.6,0.6v0.1v7c0,0.2-0.1,0.3-0.2,0.4
		c-1.4,0.7-2.5,1.8-3.3,3.1c-0.1,0.1-0.1,0.2,0.1,0.3c0.4,0.2,0.8,0.5,1.1,0.7S14.1,17.1,14,17.4z M22.3,24.9
		c-0.7,0.4-1.4,0.6-2.2,0.7c-2.5,0.1-4.8-1.6-5.2-4.1c-0.4-2.1,0.4-4.2,2.2-5.4c0.8-0.5,1.8-0.8,2.8-0.8c2.3,0,4.3,1.6,4.8,3.8
		c0.1,0.3,0.1,0.7,0.2,1C24.8,22.1,23.8,23.9,22.3,24.9z"/>
	<path class="st0" d="M9.8,13.1c0.2-0.2,0.3-0.4,0.5-0.5c0.4-0.5,1.2-0.5,1.7,0c0.2,0.2,0.3,0.4,0.3,0.6c0.1,0.4,0,0.8-0.3,1.1
		c-0.7,0.8-1.5,1.6-2.2,2.3H9.7H9.6c-0.7-0.7-1.4-1.5-2.1-2.2c-0.5-0.5-0.5-1.3,0-1.8c0.2-0.2,0.4-0.3,0.6-0.3
		c0.4-0.1,0.8,0,1.1,0.3C9.4,12.7,9.6,12.9,9.8,13.1z"/>
	<path class="st0" d="M19.7,17.4l0.7,0.6l1.6,1.6c0.5,0.5,0.4,1.3-0.1,1.7c-0.1,0.1-0.3,0.2-0.5,0.3c-0.4,0.1-0.8,0-1.1-0.3L20,21.1
		h-0.1v0.5c0.1,0.4,0.4,0.8,0.8,1c0.1,0,0.1,0.1,0.2,0.1v0.1c-0.1,0-0.2,0-0.3,0c-0.6-0.1-1.2-0.1-1.8,0c-0.1,0-0.1,0-0.2,0l0.2-0.2
		c0.5-0.3,0.7-0.8,0.7-1.3c0,0,0-0.1,0-0.2c-0.1,0.1-0.2,0.1-0.2,0.2c-0.2,0.2-0.4,0.4-0.7,0.5C18,22,17.3,21.6,17.1,21
		c-0.1-0.4,0-0.9,0.3-1.2l1.8-1.8C19.4,17.8,19.5,17.6,19.7,17.4z"/>
	<path class="st0" d="M7.3,9.3C7,8.3,6.7,7.4,6.4,6.4c0-0.1-0.2-0.2-0.3-0.2c-0.2,0-0.3,0.1-0.3,0.3C5.5,7,5.3,7.6,5.2,8.1
		s-0.3,1-0.5,1.4C4.9,9.7,5,9.6,5.1,9.4S5.3,9,5.3,8.8c0-0.1,0.2-0.2,0.3-0.2h0.8c0.1,0,0.3,0.1,0.3,0.2C6.8,9,6.9,9.2,6.9,9.4
		S7,9.6,7.2,9.6S7.3,9.4,7.3,9.3z M5.5,8.2C5.7,7.7,5.8,7.1,6,6.6h0.1c0.2,0.5,0.3,1,0.5,1.6H5.5z"/>
</g>
<path class="st1" d="M0,0h30v30H0V0z"/>
</svg>
