<?xml version="1.0" encoding="utf-8"?>
<!-- Generator: Adobe Illustrator 21.0.0, SVG Export Plug-In . SVG Version: 6.00 Build 0)  -->
<svg version="1.1" id="Layer_1" xmlns="http://www.w3.org/2000/svg" xmlns:xlink="http://www.w3.org/1999/xlink" x="0px" y="0px"
	 viewBox="0 0 30 30" style="enable-background:new 0 0 30 30;" xml:space="preserve">
<style type="text/css">
	.st0{fill:#111111;}
	.st1{fill:none;}
</style>
<g>
	<path class="st0" d="M29,6c-0.1,0.3-0.2,0.6-0.4,0.9c-0.1,0.2-0.3,0.5-0.5,0.6C28,7.6,27.9,7.8,27.9,8v10.8c0,1.1-0.8,2.1-1.9,2.2
		c-0.1,0-0.1-0.1-0.1-0.2V8c0-0.2-0.1-0.3-0.2-0.4c-0.7-0.5-1.1-1.4-0.8-2.3c0.3-0.8,1-1.4,1.9-1.5c0.8,0,1.6,0.4,1.9,1.2
		c0.1,0.2,0.2,0.4,0.3,0.6S29,5.9,29,6z"/>
	<path class="st0" d="M23.6,16.6c-0.5,0-0.5,0-0.5-0.5V9.9c0-0.3-0.2-0.6-0.5-0.7c-0.2-0.1-0.4-0.1-0.7-0.1c-0.8,0-1.5,0-2.3,0
		c-0.1,0-0.3-0.1-0.4-0.1c0-0.2,0-0.3,0.1-0.5s0.2-0.3,0.4-0.4l0.6-0.7c0.2-0.1,0.2-0.4,0.1-0.6c-0.1-0.1-0.2-0.1-0.3-0.1
		c-0.5-0.1-0.9-0.2-1.4-0.3c-0.2,0-0.4-0.2-0.5-0.3C18,5.8,17.8,5.4,17.6,5s-0.7-0.4-0.9,0l-0.4,0.6c-0.1,0.1-0.2,0.2-0.3,0.2
		l-2-0.6c-0.2-0.1-0.3-0.2-0.4-0.3c-0.4-0.6-0.7-1.2-1.1-1.8c-0.3-0.4-0.6-0.4-0.8,0s-0.6,1.1-0.9,1.6c-0.1,0.1-0.1,0.3-0.2,0.4
		s-0.2,0.2-0.4,0.2C9.5,5.4,8.8,5.5,8.1,5.7c-0.2,0.1-0.3,0-0.4-0.2S7.5,5,7.3,4.8C7.2,4.6,7,4.5,6.7,4.6c-0.1,0-0.2,0.1-0.3,0.3
		C6.2,5.2,6,5.6,5.8,6C5.7,6.2,5.6,6.3,5.3,6.3C4.9,6.4,4.4,6.5,4,6.6c-0.3,0-0.4,0.3-0.4,0.5c0,0.1,0.1,0.2,0.2,0.3
		c0.3,0.4,0.6,0.7,1,1.1C4.9,8.6,5,8.7,4.9,8.9C4.8,9,4.7,9,4.5,9c-0.7,0-1.4,0-2,0C1.6,9,1.4,9.2,1,10v16.4l0.2,0.3
		c0.2,0.3,0.5,0.5,0.9,0.5h0.2H22c0.6,0,1.1-0.4,1.2-1v-0.1c0-1,0-1.9,0-2.9c0-0.3,0-0.3,0.3-0.3H24c0.1,0,0.3-0.1,0.3-0.2
		c0,0,0,0,0-0.1s0-0.3,0-0.5v-5C24.3,16.6,24.2,16.6,23.6,16.6z M15.7,7.4c0.1-0.1,0.3-0.2,0.4-0.2c0.3,0,0.6-0.2,0.7-0.5
		c0.1-0.2,0.2-0.3,0.3-0.5s0.2-0.2,0.3,0c0.1,0.1,0.1,0.2,0.2,0.3c0.2,0.4,0.5,0.6,0.9,0.7l0.3,0.1c0.3,0.1,0.3,0.1,0.1,0.4
		S18.7,7.9,18.6,8c-0.3,0.3-0.4,0.6-0.3,1v0.3c0,0.2-0.1,0.2-0.2,0.2l-0.5-0.2c-0.2-0.1-0.5-0.1-0.8,0c-0.2,0.1-0.3,0.2-0.5,0.3
		h-0.1c-0.1,0-0.1-0.1-0.1-0.2s0-0.3,0-0.4V8.7c0.1-0.2,0-0.5-0.1-0.7c-0.1-0.1-0.2-0.2-0.3-0.3S15.7,7.4,15.7,7.4z M9.3,6.4
		c0.4-0.1,0.9-0.2,1.4-0.3c0.3,0,0.5-0.2,0.6-0.4c0.2-0.4,0.4-0.7,0.6-1.1C12,4.5,12,4.3,12.2,4.3s0.2,0.2,0.2,0.2
		C12.6,5,12.8,5.4,13,5.8c0.1,0.2,0.3,0.3,0.5,0.3l1.4,0.3c0.2,0,0.2,0.2,0.1,0.3c-0.3,0.3-0.6,0.6-0.9,0.9s-0.4,0.6-0.3,1
		S14,9.4,14,9.8s0,0.3-0.3,0.2s-0.7-0.3-1-0.5c-0.4-0.2-0.8-0.2-1.2,0c-0.3,0.2-0.7,0.3-1,0.5s-0.4,0.1-0.3-0.1
		c0.1-0.5,0.1-0.9,0.2-1.3c0.1-0.3,0-0.7-0.3-0.9c-0.3-0.3-0.6-0.6-0.9-1S9.1,6.4,9.3,6.4z M5.3,7.3c0.2,0,0.5-0.1,0.7-0.1
		s0.3-0.1,0.4-0.3s0.2-0.4,0.3-0.5s0.3-0.2,0.4,0l0.3,0.5C7.5,7,7.6,7.1,7.8,7.2c0.2,0,0.3,0.1,0.5,0.1c0.3,0.1,0.3,0.2,0.1,0.4
		L8.1,8.1C8,8.3,8,8.5,8,8.7s0,0.4,0.1,0.6S8,9.5,7.8,9.4c-0.2,0-0.3-0.1-0.5-0.2s-0.5-0.1-0.8,0C6.4,9.3,6.2,9.4,6,9.4
		c-0.2,0.1-0.3,0-0.3-0.2s0-0.3,0-0.4c0.1-0.3,0-0.7-0.3-0.9C5.3,7.8,5.2,7.7,5.1,7.6C5.1,7.4,5.1,7.3,5.3,7.3z M16.7,24.1H7.6
		c-0.4,0-0.4,0-0.4-0.4v-0.5c0-0.3,0.1-0.3,0.3-0.3h9.2c0.3,0,0.4,0,0.4,0.4v0.5C17,24.1,17,24.1,16.7,24.1z M21.1,19.3
		c0,0.4-0.1,0.5-0.5,0.5h-17c-0.4,0-0.5-0.1-0.5-0.6c0-1.9,0-3.7,0-5.6v-1.9c0-0.5,0.1-0.7,0.7-0.7h16.8c0.5,0,0.5,0.1,0.6,0.6v2.5
		v5C21.1,19.2,21.1,19.3,21.1,19.3z"/>
	<path class="st0" d="M14.4,15.5v-2.9c0-0.2,0-0.3-0.2-0.3h-4.1c-0.2,0-0.3,0-0.3,0.3v5.8c0,0.2,0,0.3,0.3,0.3h4
		c0.3,0,0.3,0,0.3-0.3L14.4,15.5z M13.6,15.5l-1.4,1.2c-0.1,0.1-0.2,0.1-0.3,0l-1.4-1.2c-0.1-0.1-0.1-0.2-0.1-0.3
		c0.1-0.4,0.6-0.7,1-0.6H12h0.9c0.2,0,0.3,0.1,0.4,0.2s0.2,0.3,0.3,0.4S13.7,15.4,13.6,15.5z"/>
	<path class="st0" d="M8.7,15.4v-3c0-0.2,0-0.2-0.2-0.2H4.4c-0.2,0-0.2,0.1-0.2,0.2v6c0,0.2,0.1,0.2,0.2,0.2h4.1
		c0.2,0,0.2-0.1,0.2-0.2V15.4z M7.9,15.4l-1.4,1.2c-0.1,0.1-0.2,0.1-0.3,0l-1.4-1.2c-0.1-0.1-0.1-0.3,0-0.4c0.1-0.2,0.2-0.3,0.3-0.4
		s0.2-0.1,0.3-0.1h1h1c0.2,0,0.3,0.1,0.4,0.2L8,15.1C8.1,15.2,8.1,15.4,7.9,15.4C8,15.5,8,15.5,7.9,15.4z"/>
	<path class="st0" d="M20,12.6c0-0.3,0-0.3-0.3-0.3h-4c-0.3,0-0.3,0-0.3,0.3v5.8c0,0.3,0,0.3,0.3,0.3h4c0.3,0,0.3,0,0.3-0.3
		c0-0.6,0-1.1,0-1.7C20,15.3,20,13.9,20,12.6z M19.3,15.4L18,16.6c-0.1,0.1-0.3,0.1-0.4,0c-0.4-0.4-0.9-0.8-1.3-1.1
		c-0.1-0.1-0.1-0.2,0-0.4c0-0.1,0.1-0.1,0.1-0.2c0.1-0.3,0.4-0.5,0.8-0.4h0.1h0.6h1c0.1,0,0.3,0.1,0.3,0.2c0.1,0.1,0.2,0.3,0.3,0.4
		C19.5,15.2,19.5,15.4,19.3,15.4C19.4,15.4,19.4,15.4,19.3,15.4z"/>
</g>
<path class="st1" d="M0,0h30v30H0V0z"/>
</svg>
