<?xml version="1.0" encoding="utf-8"?>
<!-- Generator: Adobe Illustrator 21.0.0, SVG Export Plug-In . SVG Version: 6.00 Build 0)  -->
<svg version="1.1" id="Layer_1" xmlns="http://www.w3.org/2000/svg" xmlns:xlink="http://www.w3.org/1999/xlink" x="0px" y="0px"
	 viewBox="0 0 30 30" style="enable-background:new 0 0 30 30;" xml:space="preserve">
<style type="text/css">
	.st0{fill:#111111;}
	.st1{fill:none;}
</style>
<g>
	<path class="st0" d="M15.9,10.7l-0.1,0.1l-4,3.3c-0.1,0.1-0.2,0.1-0.3,0.1L6.6,13c-0.1,0-0.2-0.1-0.2-0.2C6.2,11.5,6,10.2,5.8,8.9
		c0-0.1,0-0.3,0.1-0.4l1.6-1.7C8.4,6,9.3,5.2,10.3,4.5c0.2-0.2,0.4-0.2,0.6-0.1l3.9,1.2c0.1,0,0.2,0.1,0.2,0.2
		c0.2,0.9,0.5,1.7,0.6,2.6C15.8,9.2,15.8,9.9,15.9,10.7z"/>
	<path class="st0" d="M6.4,13.6C7,13.7,7.5,13.8,8,14l3.3,0.7c0.1,0,0.2,0.1,0.2,0.2l1.9,5.4c0,0.1,0,0.2-0.1,0.3
		c-0.9,1.1-1.8,2.2-2.7,3.3C10.5,24,10.4,24,10.3,24l-4.2-1.2c-0.1,0-0.2-0.1-0.2-0.1c-1-1.8-1.7-3.7-2-5.7c0-0.1,0-0.2,0.1-0.3
		l2.3-3C6.3,13.7,6.3,13.6,6.4,13.6z"/>
	<path class="st0" d="M15.6,5.7C16,5.4,16.4,5.2,16.9,5c0.6-0.4,1.3-0.7,2-1.1h0.3c1.8,0.7,3.5,1.7,5,2.9c0.1,0.1,0.2,0.2,0.2,0.3
		c0.1,1.5,0.2,2.9,0.3,4.4c0,0.1,0,0.2-0.2,0.3l-3.3,2c-0.1,0.1-0.2,0.1-0.3,0L16.7,11c-0.1-0.1-0.1-0.1-0.2-0.3
		C16.4,9,16.1,7.4,15.6,5.7L15.6,5.7z"/>
	<path class="st0" d="M11.1,24.2l2.6-3.2l0.1-0.1c0.4-0.5,0.4-0.5,1-0.5c1.5-0.1,2.9-0.2,4.4-0.4c0.2,0,0.4,0,0.5,0.2
		c0.7,0.9,1.5,1.8,2.2,2.7c0.1,0.1,0.1,0.2,0,0.3c-0.7,1-1.5,2-2.2,3c-0.1,0.1-0.1,0.1-0.2,0.2c-0.9,0.2-1.8,0.4-2.8,0.5
		C16.1,27,15.5,27,15,27c-0.6,0-1.2,0-1.8,0c-0.1,0-0.1,0-0.2-0.1L11.1,24.2z"/>
	<path class="st0" d="M27.2,15.1c0,1-0.2,2-0.4,2.9c-0.3,1.1-0.8,2.1-1.4,3.1c-0.1,0.2-0.3,0.3-0.5,0.4l-2.3,1.1
		c-0.1,0.1-0.2,0-0.3-0.1c-0.8-1-1.6-1.9-2.4-2.9c-0.1-0.1-0.1-0.2-0.1-0.3c0.4-1.6,0.8-3.2,1.2-4.8c0-0.1,0.1-0.2,0.2-0.2l3.6-2.1
		c0.1-0.1,0.2-0.1,0.2,0c0.7,0.8,1.3,1.5,2,2.3C27.3,14.7,27.2,14.9,27.2,15.1z"/>
	<path class="st0" d="M10.8,1.4c-0.2,0.8-0.4,1.6-0.7,2.4c0,0.1,0,0.2-0.1,0.2C9.6,4.3,9.3,4.6,8.9,4.8c-1.2,0.8-2.3,1.9-3.2,3
		C5.4,8.2,5,8.5,4.6,8.6C3.8,8.7,3.1,9,2.4,9.2H2.1C3.8,5.5,6.9,2.6,10.8,1.4z"/>
	<path class="st0" d="M5.2,25C2.4,22.4,0.9,18.7,1,14.8l0.1,0.1L3,16.8C3.1,16.9,3.1,17,3.1,17c0.3,1.9,1,3.7,2,5.3
		c0.2,0.3,0.3,0.7,0.3,1.1C5.3,24,5.3,24.5,5.2,25z"/>
	<path class="st0" d="M26.5,6.8c-0.5-0.1-0.9-0.2-1.4-0.2c-0.2,0-0.4-0.1-0.5-0.2C24,5.9,23.3,5.5,22.8,5C21.9,4.4,21,3.9,20,3.6
		c-0.4-0.1-0.7-0.2-1-0.4c-0.2-0.3-0.4-0.5-0.6-0.8c-0.3-0.4-0.5-0.9-0.8-1.3c1.8,0.4,3.5,1.1,5,2C24.1,4.1,25.4,5.4,26.5,6.8z"/>
	<path class="st0" d="M22.1,27l-0.5,0.4c-1.3,0.8-2.8,1.3-4.4,1.5C15.1,29.1,13,29,11,28.4h-0.1l0.1-0.1l1.6-0.7h0.3
		c1.2,0,2.4,0.1,3.7,0.1c0.8-0.1,1.7-0.2,2.5-0.4c0.5-0.1,1-0.2,1.4-0.1h1.6L22.1,27z"/>
	<path class="st0" d="M26.2,23.4l-0.3-1.9c0-0.1,0-0.2,0.1-0.2c0.4-0.8,0.8-1.6,1.2-2.4c0.4-1.1,0.6-2.3,0.6-3.4c0-0.1,0-0.3,0-0.4
		c-0.1-0.6,0.1-1.3,0.4-1.8c0.2-0.3,0.3-0.6,0.5-0.9C29.4,16.3,28.5,20.2,26.2,23.4z"/>
</g>
<path class="st1" d="M0,0h30v30H0V0z"/>
</svg>
